<?xml version="1.0" encoding="iso-8859-1"?>
<!-- Generator: Adobe Illustrator 19.0.0, SVG Export Plug-In . SVG Version: 6.00 Build 0)  -->
<svg version="1.1" id="Layer_1" xmlns="http://www.w3.org/2000/svg" x="0px" y="0px"
	 viewBox="0 0 512 512" style="enable-background:new 0 0 512 512;" xml:space="preserve">
<g>
	<path style="fill:#29ABE2;" d="M501.801,404.137c0-61.929-48.753-112.466-109.972-115.337
		c40.268,22.679,67.47,65.828,67.47,115.337L501.801,404.137z"/>
	<path style="fill:#29ABE2;" d="M342.291,270.175c1.002,1.02,2.04,2.004,3.11,2.953c16.43,2.286,31.892,7.586,45.813,15.329
		c31.802-2.493,56.837-29.069,56.837-61.511c0-33.547-26.77-60.824-60.111-61.681c6.206,10.518,9.781,22.776,9.781,35.873
		C397.721,234.942,373.995,263.187,342.291,270.175z"/>
	<path style="fill:#29ABE2;" d="M325.515,216.462c2.473-5.352,4.35-11.036,5.537-16.969
		C328.428,204.765,326.541,210.466,325.515,216.462z"/>
	<path style="fill:#29ABE2;" d="M52.701,404.137c0-49.509,27.201-92.658,67.47-115.337
		c-61.219,2.871-109.972,53.408-109.972,115.337H52.701z"/>
	<path style="fill:#29ABE2;" d="M169.709,270.175c-31.703-6.987-55.43-35.233-55.43-69.036c0-13.097,3.575-25.354,9.781-35.873
		c-33.341,0.857-60.111,28.132-60.111,61.681c0,32.442,25.035,59.019,56.837,61.511c13.921-7.743,29.383-13.044,45.813-15.329
		C167.669,272.179,168.707,271.195,169.709,270.175z"/>
	<path style="fill:#29ABE2;" d="M180.948,199.492c1.187,5.934,3.064,11.617,5.537,16.969
		C185.459,210.466,183.572,204.765,180.948,199.492z"/>
</g>
<g>
	<path style="fill:#BDCCD4;" d="M186.485,216.462c-2.473-5.352-4.35-11.036-5.537-16.969c-0.976-4.878-1.489-9.924-1.489-15.09
		c0-20.243,7.873-38.638,20.705-52.326c-4.891-1.07-9.964-1.65-15.175-1.65c-25.955,0-48.631,13.993-60.93,34.838
		c-6.206,10.518-9.781,22.776-9.781,35.873c0,33.803,23.726,62.05,55.43,69.036c4.923,1.085,10.032,1.675,15.281,1.675
		c16.811,0,32.243-5.878,44.378-15.675C210.367,249.121,194.93,234.738,186.485,216.462z"/>
	<path style="fill:#BDCCD4;" d="M120.785,288.457c-0.205,0.114-0.41,0.228-0.615,0.344C79.902,311.48,52.7,354.628,52.7,404.137
		h60.105c0-43.753,19.637-82.905,50.563-109.169c10.735-9.116,22.821-16.691,35.931-22.351c-4.701-0.506-9.474-0.769-14.309-0.769
		c-6.242,0-12.38,0.443-18.391,1.279C150.169,275.413,134.706,280.715,120.785,288.457z"/>
	<path style="fill:#BDCCD4;" d="M391.829,288.801c-0.205-0.115-0.409-0.229-0.615-0.344c-13.921-7.743-29.383-13.044-45.813-15.329
		c-6.011-0.836-12.149-1.279-18.391-1.279c-4.835,0-9.609,0.263-14.309,0.769c13.11,5.66,25.195,13.234,35.931,22.351
		c30.926,26.264,50.563,65.417,50.563,109.169h60.105C459.299,354.629,432.097,311.481,391.829,288.801z"/>
	<path style="fill:#BDCCD4;" d="M397.721,201.139c0-13.097-3.575-25.354-9.781-35.873c-12.299-20.845-34.975-34.838-60.93-34.838
		c-5.212,0-10.285,0.58-15.175,1.65c12.833,13.688,20.705,32.083,20.705,52.326c0,5.166-0.513,10.211-1.489,15.09
		c-1.187,5.934-3.064,11.617-5.537,16.969c-8.445,18.276-23.88,32.659-42.882,39.713c12.135,9.797,27.566,15.675,44.378,15.675
		c5.25,0,10.358-0.59,15.281-1.675C373.995,263.187,397.721,234.942,397.721,201.139z"/>
</g>
<g>
	<polygon style="fill:#29ABE2;" points="317.278,404.137 194.722,404.137 112.805,404.137 112.805,404.137 399.195,404.137
		399.195,404.137 	"/>
	<path style="fill:#29ABE2;" d="M312.701,272.618c-17.389-7.507-36.557-11.674-56.701-11.674c-20.144,0-39.312,4.167-56.701,11.674
		c-50.879,21.965-86.493,72.58-86.493,131.52h81.917h122.556h81.917C399.195,345.197,363.58,294.583,312.701,272.618z"/>
	<path style="fill:#29ABE2;" d="M332.54,184.403c0-20.243-7.873-38.638-20.705-52.326c-13.965-14.895-33.806-24.215-55.836-24.215
		s-41.871,9.319-55.836,24.215c-12.833,13.688-20.705,32.083-20.705,52.326c0,32.905,20.768,60.954,49.908,71.772
		c8.295,3.079,17.266,4.769,26.633,4.769s18.337-1.689,26.633-4.769C311.773,245.356,332.54,217.308,332.54,184.403z"/>
</g>
<path d="M427.935,285.555c18.327-13.048,30.316-34.448,30.316-58.61c0-37.168-28.34-67.84-64.545-71.544
	c-14.6-21.224-39.046-35.174-66.696-35.174c-4.007,0-7.941,0.311-11.792,0.879c-15.516-14.524-36.34-23.443-59.219-23.443
	c-22.877,0-43.7,8.917-59.214,23.44c-3.853-0.567-7.789-0.875-11.796-0.875c-27.651,0-52.097,13.949-66.696,35.174
	c-36.205,3.705-64.545,34.377-64.545,71.544c0,24.161,11.988,45.561,30.316,58.61C35.157,302.765,0,349.42,0,404.137
	c0,5.633,4.566,10.199,10.199,10.199h42.502h1.354h57.116v-0.143c0.533,0.086,1.077,0.143,1.635,0.143h286.389
	c0.207,0,0.41-0.018,0.615-0.031v0.031h56.096h3.394h42.501c5.633,0,10.199-4.566,10.199-10.199
	C512,349.42,476.843,302.765,427.935,285.555z M437.853,226.947c0,26.078-19.48,47.679-44.652,51.05
	c-6.952-3.663-14.237-6.772-21.804-9.259c21.979-14.481,36.524-39.368,36.524-67.599c0-7.725-1.111-15.191-3.142-22.272
	C424.099,186.301,437.853,205.038,437.853,226.947z M387.523,201.137c0,33.367-27.145,60.512-60.512,60.512
	c-8.32,0-16.248-1.695-23.468-4.751c23.586-15.52,39.198-42.212,39.198-72.497c0-15.904-4.321-30.808-11.823-43.636
	C362.467,142.788,387.523,169.085,387.523,201.137z M322.341,184.403c0,36.58-29.76,66.341-66.341,66.341
	s-66.341-29.76-66.341-66.341s29.76-66.341,66.341-66.341S322.341,147.822,322.341,184.403z M181.084,140.766
	c-7.502,12.829-11.823,27.734-11.823,43.636c0,30.283,15.611,56.976,39.197,72.496c-7.219,3.056-15.147,4.751-23.467,4.751
	c-33.367,0-60.512-27.145-60.512-60.512C124.477,169.085,149.533,142.788,181.084,140.766z M74.147,226.947
	c0-21.912,13.753-40.662,33.078-48.094c-2.034,7.085-3.146,14.556-3.146,22.286c0,28.232,14.545,53.118,36.524,67.599
	c-7.567,2.487-14.852,5.597-21.804,9.259C93.628,274.626,74.147,253.025,74.147,226.947z M77.759,310.421
	c-19.842,22.67-32.624,51.661-34.888,83.517H20.888C24.409,357.484,46.603,326.412,77.759,310.421z M102.954,393.938H63.322
	c4.501-54.16,44.511-98.39,96.621-109.299C127.488,310.78,105.864,349.841,102.954,393.938z M123.392,393.938
	C128.62,325.355,186.099,271.143,256,271.143s127.38,54.212,132.608,122.795H123.392z M409.046,393.938
	c-2.91-44.097-24.534-83.158-56.989-109.299c52.11,10.909,92.12,55.139,96.621,109.299H409.046z M469.13,393.938
	c-2.263-31.846-15.039-60.828-34.869-83.495c31.143,15.994,53.332,47.05,56.85,83.495L469.13,393.938L469.13,393.938z"/>
<path d="M193.656,297.106c-27.942,16.693-48.311,44.341-55.883,75.855c-1.317,5.477,2.057,10.984,7.534,12.3
	c0.801,0.193,1.602,0.285,2.392,0.285c4.607,0,8.785-3.143,9.909-7.819c6.298-26.211,23.251-49.213,46.511-63.109
	c4.835-2.889,6.414-9.151,3.526-13.986C204.754,295.794,198.491,294.218,193.656,297.106z"/>
<path d="M255.857,279.987c-9.507,0-18.975,1.104-28.143,3.28c-5.481,1.3-8.869,6.799-7.568,12.279
	c1.113,4.689,5.296,7.846,9.915,7.846c0.78,0,1.573-0.09,2.364-0.278c7.626-1.81,15.51-2.728,23.432-2.728
	c5.633,0,10.199-4.566,10.199-10.199C266.056,284.553,261.49,279.987,255.857,279.987z"/>
<g>
</g>
<g>
</g>
<g>
</g>
<g>
</g>
<g>
</g>
<g>
</g>
<g>
</g>
<g>
</g>
<g>
</g>
<g>
</g>
<g>
</g>
<g>
</g>
<g>
</g>
<g>
</g>
<g>
</g>
</svg>
